<svg version="1.1" viewBox="0.0 0.0 960.0 540.0" fill="none" stroke="none" stroke-linecap="square" stroke-miterlimit="10" xmlns:xlink="http://www.w3.org/1999/xlink" xmlns="http://www.w3.org/2000/svg"><clipPath id="g736beb2f52_0_43.0"><path d="m0 0l960.0 0l0 540.0l-960.0 0l0 -540.0z" clip-rule="nonzero"/></clipPath><g clip-path="url(#g736beb2f52_0_43.0)"><path fill="#ffffff" d="m0 0l960.0 0l0 540.0l-960.0 0z" fill-rule="evenodd"/><path fill="#000000" fill-opacity="0.0" d="m222.45297 167.69351l270.78848 211.86096" fill-rule="evenodd"/><path stroke="#595959" stroke-width="3.0" stroke-linejoin="round" stroke-linecap="butt" d="m222.45299 167.69351l256.61188 200.76938" fill-rule="evenodd"/><path fill="#595959" stroke="#595959" stroke-width="3.0" stroke-linecap="butt" d="m476.01144 372.36554l13.775879 4.48645l-7.669098 -12.291779z" fill-rule="evenodd"/><path fill="#eeeeee" d="m290.87564 404.6424l0 0c0 -13.846588 11.224884 -25.071472 25.071472 -25.071472l354.60703 0c6.649414 0 13.026428 2.641449 17.72821 7.3432617c4.7018433 4.7018127 7.3432617 11.078857 7.3432617 17.72821l0 100.28287c0 13.846588 -11.2248535 25.071442 -25.071472 25.071442l-354.60703 0l0 0c-13.846588 0 -25.071472 -11.2248535 -25.071472 -25.071442z" fill-rule="evenodd"/><path stroke="#595959" stroke-width="1.0" stroke-linejoin="round" stroke-linecap="butt" d="m290.87564 404.6424l0 0c0 -13.846588 11.224884 -25.071472 25.071472 -25.071472l354.60703 0c6.649414 0 13.026428 2.641449 17.72821 7.3432617c4.7018433 4.7018127 7.3432617 11.078857 7.3432617 17.72821l0 100.28287c0 13.846588 -11.2248535 25.071442 -25.071472 25.071442l-354.60703 0l0 0c-13.846588 0 -25.071472 -11.2248535 -25.071472 -25.071442z" fill-rule="evenodd"/><path fill="#000000" d="m482.5319 466.5038l8.796875 -22.90625l3.265625 0l9.375 22.90625l-3.453125 0l-2.671875 -6.9375l-9.578125 0l-2.515625 6.9375l-3.21875 0zm6.609375 -9.40625l7.765625 0l-2.390625 -6.34375q-1.09375 -2.890625 -1.625 -4.75q-0.4375 2.203125 -1.234375 4.375l-2.515625 6.71875z" fill-rule="nonzero"/><path fill="#eeeeee" d="m20.07798 42.33918l0 0c0 -13.846588 11.224878 -25.071468 25.071468 -25.071468l354.60706 0c6.649353 0 13.026398 2.641451 17.72821 7.3432636c4.7018127 4.7018127 7.3432617 11.07884 7.3432617 17.728205l0 100.28286c0 13.846588 -11.224884 25.071472 -25.071472 25.071472l-354.60706 0l0 0c-13.84659 0 -25.071468 -11.224884 -25.071468 -25.071472z" fill-rule="evenodd"/><path stroke="#595959" stroke-width="1.0" stroke-linejoin="round" stroke-linecap="butt" d="m20.07798 42.33918l0 0c0 -13.846588 11.224878 -25.071468 25.071468 -25.071468l354.60706 0c6.649353 0 13.026398 2.641451 17.72821 7.3432636c4.7018127 4.7018127 7.3432617 11.07884 7.3432617 17.728205l0 100.28286c0 13.846588 -11.224884 25.071472 -25.071472 25.071472l-354.60706 0l0 0c-13.84659 0 -25.071468 -11.224884 -25.071468 -25.071472z" fill-rule="evenodd"/><path fill="#000000" d="m214.12485 104.20061l0 -22.90625l8.59375 0q2.625 0 4.203125 0.703125q1.59375 0.6875 2.484375 2.140625q0.90625 1.4375 0.90625 3.015625q0 1.46875 -0.796875 2.765625q-0.796875 1.296875 -2.40625 2.09375q2.078125 0.609375 3.1875 2.078125q1.125 1.46875 1.125 3.46875q0 1.609375 -0.6875 3.0q-0.671875 1.375 -1.671875 2.125q-1.0 0.75 -2.515625 1.140625q-1.5 0.375 -3.6875 0.375l-8.734375 0zm3.03125 -13.28125l4.953125 0q2.015625 0 2.890625 -0.265625q1.15625 -0.34375 1.734375 -1.140625q0.59375 -0.796875 0.59375 -2.0q0 -1.140625 -0.546875 -2.0q-0.546875 -0.875 -1.5625 -1.1875q-1.015625 -0.328125 -3.484375 -0.328125l-4.578125 0l0 6.921875zm0 10.578125l5.703125 0q1.46875 0 2.0625 -0.109375q1.046875 -0.1875 1.75 -0.625q0.703125 -0.4375 1.15625 -1.265625q0.453125 -0.84375 0.453125 -1.9375q0 -1.28125 -0.65625 -2.21875q-0.65625 -0.953125 -1.828125 -1.328125q-1.15625 -0.390625 -3.34375 -0.390625l-5.296875 0l0 7.875z" fill-rule="nonzero"/><path fill="#eeeeee" d="m547.1034 42.33918l0 0c0 -13.846588 11.2248535 -25.071468 25.071472 -25.071468l354.60706 0c6.649353 0 13.026367 2.641451 17.72821 7.3432636c4.701782 4.7018127 7.3432617 11.07884 7.3432617 17.728205l0 100.28286c0 13.846588 -11.224915 25.071472 -25.071472 25.071472l-354.60706 0l0 0c-13.846619 0 -25.071472 -11.224884 -25.071472 -25.071472z" fill-rule="evenodd"/><path stroke="#595959" stroke-width="1.0" stroke-linejoin="round" stroke-linecap="butt" d="m547.1034 42.33918l0 0c0 -13.846588 11.2248535 -25.071468 25.071472 -25.071468l354.60706 0c6.649353 0 13.026367 2.641451 17.72821 7.3432636c4.701782 4.7018127 7.3432617 11.07884 7.3432617 17.728205l0 100.28286c0 13.846588 -11.224915 25.071472 -25.071472 25.071472l-354.60706 0l0 0c-13.846619 0 -25.071472 -11.224884 -25.071472 -25.071472z" fill-rule="evenodd"/><path fill="#000000" d="m756.7362 96.16936l3.03125 0.765625q-0.953125 3.734375 -3.4375 5.703125q-2.46875 1.953125 -6.046875 1.953125q-3.703125 0 -6.03125 -1.5q-2.3125 -1.515625 -3.53125 -4.375q-1.203125 -2.859375 -1.203125 -6.140625q0 -3.578125 1.359375 -6.234375q1.375 -2.671875 3.890625 -4.046875q2.53125 -1.390625 5.5625 -1.390625q3.4375 0 5.78125 1.75q2.34375 1.75 3.265625 4.921875l-2.984375 0.703125q-0.796875 -2.5 -2.3125 -3.640625q-1.515625 -1.140625 -3.8125 -1.140625q-2.640625 0 -4.421875 1.265625q-1.765625 1.265625 -2.484375 3.40625q-0.71875 2.125 -0.71875 4.390625q0 2.921875 0.84375 5.109375q0.859375 2.171875 2.65625 3.25q1.796875 1.078125 3.890625 1.078125q2.546875 0 4.3125 -1.46875q1.765625 -1.46875 2.390625 -4.359375z" fill-rule="nonzero"/><path fill="#000000" fill-opacity="0.0" d="m749.4784 167.69351l-256.24066 211.86096" fill-rule="evenodd"/><path stroke="#595959" stroke-width="3.0" stroke-linejoin="round" stroke-linecap="butt" d="m749.47833 167.69351l-242.36816 200.39117" fill-rule="evenodd"/><path fill="#595959" stroke="#595959" stroke-width="3.0" stroke-linecap="butt" d="m503.95267 364.26575l-7.3349 12.49411l13.649902 -4.856262z" fill-rule="evenodd"/></g></svg>