<svg version="1.1" viewBox="0.0 0.0 960.0 540.0" fill="none" stroke="none" stroke-linecap="square" stroke-miterlimit="10" xmlns:xlink="http://www.w3.org/1999/xlink" xmlns="http://www.w3.org/2000/svg"><clipPath id="g736beb2f52_0_27.0"><path d="m0 0l960.0 0l0 540.0l-960.0 0l0 -540.0z" clip-rule="nonzero"/></clipPath><g clip-path="url(#g736beb2f52_0_27.0)"><path fill="#ffffff" d="m0 0l960.0 0l0 540.0l-960.0 0z" fill-rule="evenodd"/><path fill="#000000" fill-opacity="0.0" d="m482.27975 167.86539l-278.77774 208.83841" fill-rule="evenodd"/><path stroke="#595959" stroke-width="3.0" stroke-linejoin="round" stroke-linecap="butt" d="m482.2798 167.86539l-264.3717 198.04648" fill-rule="evenodd"/><path fill="#595959" stroke="#595959" stroke-width="3.0" stroke-linecap="butt" d="m214.9372 361.94604l-7.9251404 12.128296l13.866913 -4.1966248z" fill-rule="evenodd"/><path fill="#eeeeee" d="m287.89752 35.553917l0 0c0 -14.61507 11.847839 -26.462929 26.462921 -26.462929l335.83865 0c7.0183716 0 13.749329 2.7880507 18.712097 7.7508116c4.9627686 4.962763 7.7507935 11.693712 7.7507935 18.712116l0 105.84855c0 14.615067 -11.847839 26.462921 -26.46289 26.462921l-335.83865 0l0 0c-14.615082 0 -26.462921 -11.847855 -26.462921 -26.462921z" fill-rule="evenodd"/><path stroke="#595959" stroke-width="1.0" stroke-linejoin="round" stroke-linecap="butt" d="m287.89752 35.553917l0 0c0 -14.61507 11.847839 -26.462929 26.462921 -26.462929l335.83865 0c7.0183716 0 13.749329 2.7880507 18.712097 7.7508116c4.9627686 4.962763 7.7507935 11.693712 7.7507935 18.712116l0 105.84855c0 14.615067 -11.847839 26.462921 -26.46289 26.462921l-335.83865 0l0 0c-14.615082 0 -26.462921 -11.847855 -26.462921 -26.462921z" fill-rule="evenodd"/><path fill="#000000" d="m471.561 100.19818l8.796875 -22.90625l3.265625 0l9.375 22.90625l-3.453125 0l-2.671875 -6.9375l-9.578125 0l-2.515625 6.9375l-3.21875 0zm6.609375 -9.40625l7.765625 0l-2.390625 -6.34375q-1.09375 -2.890625 -1.625 -4.75q-0.4375 2.203125 -1.234375 4.375l-2.515625 6.71875z" fill-rule="nonzero"/><path fill="#eeeeee" d="m9.093303 403.14178l0 0c0 -14.616394 11.84891 -26.465302 26.465282 -26.465302l335.834 0c7.019043 0 13.75058 2.7882996 18.713776 7.751526c4.9632263 4.963196 7.751526 11.694733 7.751526 18.713776l0 105.85794c0 14.616364 -11.848938 26.465302 -26.465302 26.465302l-335.834 0l0 0c-14.616373 0 -26.465282 -11.848938 -26.465282 -26.465302z" fill-rule="evenodd"/><path stroke="#595959" stroke-width="1.0" stroke-linejoin="round" stroke-linecap="butt" d="m9.093303 403.14178l0 0c0 -14.616394 11.84891 -26.465302 26.465282 -26.465302l335.834 0c7.019043 0 13.75058 2.7882996 18.713776 7.751526c4.9632263 4.963196 7.751526 11.694733 7.751526 18.713776l0 105.85794c0 14.616364 -11.848938 26.465302 -26.465302 26.465302l-335.834 0l0 0c-14.616373 0 -26.465282 -11.848938 -26.465282 -26.465302z" fill-rule="evenodd"/><path fill="#000000" d="m195.14748 467.79074l0 -22.90625l8.59375 0q2.625 0 4.203125 0.703125q1.59375 0.6875 2.484375 2.140625q0.90625 1.4375 0.90625 3.015625q0 1.46875 -0.796875 2.765625q-0.796875 1.296875 -2.40625 2.09375q2.078125 0.609375 3.1875 2.078125q1.125 1.46875 1.125 3.46875q0 1.609375 -0.6875 3.0q-0.671875 1.375 -1.671875 2.125q-1.0 0.75 -2.515625 1.140625q-1.5 0.375 -3.6875 0.375l-8.734375 0zm3.03125 -13.28125l4.953125 0q2.015625 0 2.890625 -0.265625q1.15625 -0.34375 1.734375 -1.140625q0.59375 -0.796875 0.59375 -2.0q0 -1.140625 -0.546875 -2.0q-0.546875 -0.875 -1.5625 -1.1875q-1.015625 -0.328125 -3.484375 -0.328125l-4.578125 0l0 6.921875zm0 10.578125l5.703125 0q1.46875 0 2.0625 -0.109375q1.046875 -0.1875 1.75 -0.625q0.703125 -0.4375 1.15625 -1.265625q0.453125 -0.84375 0.453125 -1.9375q0 -1.28125 -0.65625 -2.21875q-0.65625 -0.953125 -1.828125 -1.328125q-1.15625 -0.390625 -3.34375 -0.390625l-5.296875 0l0 7.875z" fill-rule="nonzero"/><path fill="#eeeeee" d="m566.68933 403.14178l0 0c0 -14.616394 11.848938 -26.465302 26.465271 -26.465302l335.83405 0c7.019043 0 13.75061 2.7882996 18.713806 7.751526c4.963196 4.963196 7.751465 11.694733 7.751465 18.713776l0 105.85794c0 14.616364 -11.848877 26.465302 -26.465271 26.465302l-335.83405 0l0 0c-14.616333 0 -26.465271 -11.848938 -26.465271 -26.465302z" fill-rule="evenodd"/><path stroke="#595959" stroke-width="1.0" stroke-linejoin="round" stroke-linecap="butt" d="m566.68933 403.14178l0 0c0 -14.616394 11.848938 -26.465302 26.465271 -26.465302l335.83405 0c7.019043 0 13.75061 2.7882996 18.713806 7.751526c4.963196 4.963196 7.751465 11.694733 7.751465 18.713776l0 105.85794c0 14.616364 -11.848877 26.465302 -26.465271 26.465302l-335.83405 0l0 0c-14.616333 0 -26.465271 -11.848938 -26.465271 -26.465302z" fill-rule="evenodd"/><path fill="#000000" d="m768.32947 459.7595l3.03125 0.765625q-0.953125 3.734375 -3.4375 5.703125q-2.46875 1.953125 -6.046875 1.953125q-3.703125 0 -6.03125 -1.5q-2.3125 -1.515625 -3.53125 -4.375q-1.203125 -2.859375 -1.203125 -6.140625q0 -3.578125 1.359375 -6.234375q1.375 -2.671875 3.890625 -4.046875q2.53125 -1.390625 5.5625 -1.390625q3.4375 0 5.78125 1.75q2.34375 1.75 3.265625 4.921875l-2.984375 0.703125q-0.796875 -2.5 -2.3125 -3.640625q-1.515625 -1.140625 -3.8125 -1.140625q-2.640625 0 -4.421875 1.265625q-1.765625 1.265625 -2.484375 3.40625q-0.71875 2.125 -0.71875 4.390625q0 2.921875 0.84375 5.109375q0.859375 2.171875 2.65625 3.25q1.796875 1.078125 3.890625 1.078125q2.546875 0 4.3125 -1.46875q1.765625 -1.46875 2.390625 -4.359375z" fill-rule="nonzero"/><path fill="#000000" fill-opacity="0.0" d="m482.27975 167.86539l278.77774 208.83841" fill-rule="evenodd"/><path stroke="#595959" stroke-width="3.0" stroke-linejoin="round" stroke-linecap="butt" d="m482.2798 167.86539l264.37164 198.04648" fill-rule="evenodd"/><path fill="#595959" stroke="#595959" stroke-width="3.0" stroke-linecap="butt" d="m743.68054 369.87772l13.866882 4.1966248l-7.92511 -12.128296z" fill-rule="evenodd"/></g></svg>