<svg version="1.1" viewBox="0.0 0.0 960.0 540.0" fill="none" stroke="none" stroke-linecap="square" stroke-miterlimit="10" xmlns:xlink="http://www.w3.org/1999/xlink" xmlns="http://www.w3.org/2000/svg"><clipPath id="g736beb2f52_0_69.0"><path d="m0 0l960.0 0l0 540.0l-960.0 0l0 -540.0z" clip-rule="nonzero"/></clipPath><g clip-path="url(#g736beb2f52_0_69.0)"><path fill="#ffffff" d="m0 0l960.0 0l0 540.0l-960.0 0z" fill-rule="evenodd"/><path fill="#000000" fill-opacity="0.0" d="m506.3297 124.708244l-213.24796 87.940056" fill-rule="evenodd"/><path stroke="#595959" stroke-width="3.0" stroke-linejoin="round" stroke-linecap="butt" d="m506.32968 124.708244l-196.60736 81.07777" fill-rule="evenodd"/><path fill="#595959" stroke="#595959" stroke-width="3.0" stroke-linecap="butt" d="m307.83322 201.20505l-10.696991 9.7712555l14.47522 -0.6093292z" fill-rule="evenodd"/><path fill="#eeeeee" d="m350.8993 27.601822l0 0c0 -10.726337 8.695404 -19.421751 19.421753 -19.421751l272.01733 0c5.15094 0 10.090942 2.046214 13.733215 5.6884995c3.642273 3.6422844 5.6885376 8.582283 5.6885376 13.733252l0 77.68467c0 10.726341 -8.695435 19.421753 -19.421753 19.421753l-272.01733 0l0 0c-10.726349 0 -19.421753 -8.695412 -19.421753 -19.421753z" fill-rule="evenodd"/><path stroke="#595959" stroke-width="1.0" stroke-linejoin="round" stroke-linecap="butt" d="m350.8993 27.601822l0 0c0 -10.726337 8.695404 -19.421751 19.421753 -19.421751l272.01733 0c5.15094 0 10.090942 2.046214 13.733215 5.6884995c3.642273 3.6422844 5.6885376 8.582283 5.6885376 13.733252l0 77.68467c0 10.726341 -8.695435 19.421753 -19.421753 19.421753l-272.01733 0l0 0c-10.726349 0 -19.421753 -8.695412 -19.421753 -19.421753z" fill-rule="evenodd"/><path fill="#000000" d="m495.61096 78.164154l8.796875 -22.90625l3.265625 0l9.375 22.90625l-3.453125 0l-2.671875 -6.9375l-9.578125 0l-2.515625 6.9375l-3.21875 0zm6.609375 -9.40625l7.765625 0l-2.390625 -6.34375q-1.09375 -2.890625 -1.625 -4.75q-0.4375 2.203125 -1.234375 4.375l-2.515625 6.71875z" fill-rule="nonzero"/><path fill="#eeeeee" d="m137.65117 232.05438l0 0c0 -10.727707 8.696533 -19.424225 19.42424 -19.424225l271.99377 0c5.1516113 0 10.092255 2.046463 13.735016 5.6892242c3.6427307 3.642746 5.689209 8.583374 5.689209 13.735001l0 77.69461c0 10.727692 -8.696533 19.424225 -19.424225 19.424225l-271.99377 0l0 0c-10.727707 0 -19.42424 -8.696533 -19.42424 -19.424225z" fill-rule="evenodd"/><path stroke="#595959" stroke-width="1.0" stroke-linejoin="round" stroke-linecap="butt" d="m137.65117 232.05438l0 0c0 -10.727707 8.696533 -19.424225 19.42424 -19.424225l271.99377 0c5.1516113 0 10.092255 2.046463 13.735016 5.6892242c3.6427307 3.642746 5.689209 8.583374 5.689209 13.735001l0 77.69461c0 10.727692 -8.696533 19.424225 -19.424225 19.424225l-271.99377 0l0 0c-10.727707 0 -19.42424 -8.696533 -19.42424 -19.424225z" fill-rule="evenodd"/><path fill="#000000" d="m284.74417 282.62167l0 -22.90625l8.59375 0q2.625 0 4.203125 0.703125q1.59375 0.6875 2.484375 2.140625q0.90625 1.4375 0.90625 3.015625q0 1.46875 -0.796875 2.765625q-0.796875 1.296875 -2.40625 2.09375q2.078125 0.609375 3.1875 2.078125q1.125 1.46875 1.125 3.46875q0 1.609375 -0.6875 3.0q-0.671875 1.375 -1.671875 2.125q-1.0 0.75 -2.515625 1.140625q-1.5 0.375 -3.6875 0.375l-8.734375 0zm3.03125 -13.28125l4.953125 0q2.015625 0 2.890625 -0.265625q1.15625 -0.34375 1.734375 -1.140625q0.59375 -0.796875 0.59375 -2.0q0 -1.140625 -0.546875 -2.0q-0.546875 -0.875 -1.5625 -1.1875q-1.015625 -0.328125 -3.484375 -0.328125l-4.578125 0l0 6.921875zm0 10.578125l5.703125 0q1.46875 0 2.0625 -0.109375q1.046875 -0.1875 1.75 -0.625q0.703125 -0.4375 1.15625 -1.265625q0.453125 -0.84375 0.453125 -1.9375q0 -1.28125 -0.65625 -2.21875q-0.65625 -0.953125 -1.828125 -1.328125q-1.15625 -0.390625 -3.34375 -0.390625l-5.296875 0l0 7.875z" fill-rule="nonzero"/><path fill="#eeeeee" d="m6.3670855 436.51593l0 0c0 -10.726349 8.695414 -19.421753 19.42175 -19.421753l272.0173 0c5.1509705 0 10.090973 2.0462036 13.733246 5.688507c3.642273 3.642273 5.688507 8.582275 5.688507 13.733246l0 77.68469c0 10.726318 -8.695435 19.421692 -19.421753 19.421692l-272.0173 0l0 0c-10.7263365 0 -19.42175 -8.695374 -19.42175 -19.421692z" fill-rule="evenodd"/><path stroke="#595959" stroke-width="1.0" stroke-linejoin="round" stroke-linecap="butt" d="m6.3670855 436.51593l0 0c0 -10.726349 8.695414 -19.421753 19.42175 -19.421753l272.0173 0c5.1509705 0 10.090973 2.0462036 13.733246 5.688507c3.642273 3.642273 5.688507 8.582275 5.688507 13.733246l0 77.68469c0 10.726318 -8.695435 19.421692 -19.421753 19.421692l-272.0173 0l0 0c-10.7263365 0 -19.42175 -8.695374 -19.42175 -19.421692z" fill-rule="evenodd"/><path fill="#000000" d="m169.05531 479.047l3.03125 0.765625q-0.953125 3.734375 -3.4375 5.703125q-2.46875 1.953125 -6.046875 1.953125q-3.703125 0 -6.03125 -1.5q-2.3125 -1.515625 -3.53125 -4.375q-1.203125 -2.859375 -1.203125 -6.140625q0 -3.578125 1.359375 -6.234375q1.375 -2.671875 3.890625 -4.046875q2.53125 -1.390625 5.5625 -1.390625q3.4375 0 5.78125 1.75q2.34375 1.75 3.265625 4.921875l-2.984375 0.703125q-0.796875 -2.5 -2.3125 -3.640625q-1.515625 -1.140625 -3.8125 -1.140625q-2.640625 0 -4.421875 1.265625q-1.765625 1.265625 -2.484375 3.40625q-0.71875 2.125 -0.71875 4.390625q0 2.921875 0.84375 5.109375q0.859375 2.171875 2.65625 3.25q1.796875 1.078125 3.890625 1.078125q2.546875 0 4.3125 -1.46875q1.765625 -1.46875 2.390625 -4.359375z" fill-rule="nonzero"/><path fill="#000000" fill-opacity="0.0" d="m293.0723 329.17322l-131.27878 87.889465" fill-rule="evenodd"/><path stroke="#595959" stroke-width="3.0" stroke-linejoin="round" stroke-linecap="butt" d="m293.0723 329.17322l-116.32138 77.8757" fill-rule="evenodd"/><path fill="#595959" stroke="#595959" stroke-width="3.0" stroke-linecap="butt" d="m173.99425 402.9313l-8.556351 11.691528l14.069717 -3.4563293z" fill-rule="evenodd"/><path fill="#eeeeee" d="m572.81134 232.06033l0 0c0 -10.726334 8.695435 -19.421753 19.421753 -19.421753l272.01727 0c5.151001 0 10.091003 2.0462189 13.733276 5.688507c3.642273 3.642273 5.6884766 8.582275 5.6884766 13.733246l0 77.68466c0 10.726349 -8.695374 19.421753 -19.421753 19.421753l-272.01727 0l0 0c-10.726318 0 -19.421753 -8.695404 -19.421753 -19.421753z" fill-rule="evenodd"/><path stroke="#595959" stroke-width="1.0" stroke-linejoin="round" stroke-linecap="butt" d="m572.81134 232.06033l0 0c0 -10.726334 8.695435 -19.421753 19.421753 -19.421753l272.01727 0c5.151001 0 10.091003 2.0462189 13.733276 5.688507c3.642273 3.642273 5.6884766 8.582275 5.6884766 13.733246l0 77.68466c0 10.726349 -8.695374 19.421753 -19.421753 19.421753l-272.01727 0l0 0c-10.726318 0 -19.421753 -8.695404 -19.421753 -19.421753z" fill-rule="evenodd"/><path fill="#000000" d="m719.1558 282.62268l0 -22.90625l7.890625 0q2.671875 0 4.078125 0.328125q1.96875 0.453125 3.359375 1.640625q1.8125 1.53125 2.703125 3.921875q0.90625 2.375 0.90625 5.4375q0 2.609375 -0.609375 4.625q-0.609375 2.015625 -1.5625 3.34375q-0.953125 1.3125 -2.09375 2.078125q-1.125 0.75 -2.734375 1.140625q-1.59375 0.390625 -3.671875 0.390625l-8.265625 0zm3.03125 -2.703125l4.890625 0q2.265625 0 3.546875 -0.421875q1.296875 -0.421875 2.0625 -1.1875q1.078125 -1.078125 1.671875 -2.890625q0.609375 -1.828125 0.609375 -4.421875q0 -3.59375 -1.1875 -5.515625q-1.171875 -1.9375 -2.859375 -2.59375q-1.21875 -0.46875 -3.921875 -0.46875l-4.8125 0l0 17.5z" fill-rule="nonzero"/><path fill="#eeeeee" d="m644.60297 436.51593l0 0c0 -10.726349 8.695435 -19.421753 19.421753 -19.421753l272.01733 0c5.15094 0 10.090942 2.0462036 13.733215 5.688507c3.642334 3.642273 5.6885376 8.582275 5.6885376 13.733246l0 77.68469c0 10.726318 -8.695435 19.421692 -19.421753 19.421692l-272.01733 0l0 0c-10.726318 0 -19.421753 -8.695374 -19.421753 -19.421692z" fill-rule="evenodd"/><path stroke="#595959" stroke-width="1.0" stroke-linejoin="round" stroke-linecap="butt" d="m644.60297 436.51593l0 0c0 -10.726349 8.695435 -19.421753 19.421753 -19.421753l272.01733 0c5.15094 0 10.090942 2.0462036 13.733215 5.688507c3.642334 3.642273 5.6885376 8.582275 5.6885376 13.733246l0 77.68469c0 10.726318 -8.695435 19.421692 -19.421753 19.421692l-272.01733 0l0 0c-10.726318 0 -19.421753 -8.695374 -19.421753 -19.421692z" fill-rule="evenodd"/><path fill="#000000" d="m791.89276 487.07825l0 -22.90625l16.5625 0l0 2.703125l-13.53125 0l0 7.015625l12.671875 0l0 2.6875l-12.671875 0l0 7.796875l14.0625 0l0 2.703125l-17.09375 0z" fill-rule="nonzero"/><path fill="#000000" fill-opacity="0.0" d="m506.3297 124.708244l221.9389 87.940056" fill-rule="evenodd"/><path stroke="#595959" stroke-width="3.0" stroke-linejoin="round" stroke-linecap="butt" d="m506.32968 124.708244l205.20468 81.309395" fill-rule="evenodd"/><path fill="#595959" stroke="#595959" stroke-width="3.0" stroke-linecap="butt" d="m709.70905 210.62436l14.4823 0.40838623l-10.831604 -9.621857z" fill-rule="evenodd"/><path fill="#000000" fill-opacity="0.0" d="m728.24176 329.16675l71.76874 87.94006" fill-rule="evenodd"/><path stroke="#595959" stroke-width="3.0" stroke-linejoin="round" stroke-linecap="butt" d="m728.2417 329.16675l60.387817 73.99472" fill-rule="evenodd"/><path fill="#595959" stroke="#595959" stroke-width="3.0" stroke-linecap="butt" d="m784.7905 406.2945l12.4470215 7.414551l-4.768982 -13.680634z" fill-rule="evenodd"/></g></svg>