<svg version="1.1" viewBox="0.0 0.0 960.0 540.0" fill="none" stroke="none" stroke-linecap="square" stroke-miterlimit="10" xmlns:xlink="http://www.w3.org/1999/xlink" xmlns="http://www.w3.org/2000/svg"><clipPath id="g736beb2f52_0_83.0"><path d="m0 0l960.0 0l0 540.0l-960.0 0l0 -540.0z" clip-rule="nonzero"/></clipPath><g clip-path="url(#g736beb2f52_0_83.0)"><path fill="#ffffff" d="m0 0l960.0 0l0 540.0l-960.0 0z" fill-rule="evenodd"/><path fill="#000000" fill-opacity="0.0" d="m302.69458 133.31l203.37009 78.425186" fill-rule="evenodd"/><path stroke="#595959" stroke-width="3.0" stroke-linejoin="round" stroke-linecap="butt" d="m302.69458 133.30998l186.57556 71.94878" fill-rule="evenodd"/><path fill="#595959" stroke="#595959" stroke-width="3.0" stroke-linecap="butt" d="m487.4872 209.8821l14.485443 0.27511597l-10.919647 -9.52179z" fill-rule="evenodd"/><path fill="#eeeeee" d="m147.2615 36.19752l0 0c0 -10.727007 8.695953 -19.422962 19.422958 -19.422962l272.0202 0c5.151306 0 10.091583 2.046341 13.7341 5.688854c3.642517 3.6425114 5.6888733 8.582817 5.6888733 13.734108l0 77.689514c0 10.727005 -8.695953 19.422966 -19.422974 19.422966l-272.0202 0l0 0c-10.727005 0 -19.422958 -8.695961 -19.422958 -19.422966z" fill-rule="evenodd"/><path stroke="#595959" stroke-width="1.0" stroke-linejoin="round" stroke-linecap="butt" d="m147.2615 36.19752l0 0c0 -10.727007 8.695953 -19.422962 19.422958 -19.422962l272.0202 0c5.151306 0 10.091583 2.046341 13.7341 5.688854c3.642517 3.6425114 5.6888733 8.582817 5.6888733 13.734108l0 77.689514c0 10.727005 -8.695953 19.422966 -19.422974 19.422966l-272.0202 0l0 0c-10.727005 0 -19.422958 -8.695961 -19.422958 -19.422966z" fill-rule="evenodd"/><path fill="#000000" d="m291.97583 86.762276l8.796875 -22.90625l3.265625 0l9.375 22.90625l-3.453125 0l-2.671875 -6.9375l-9.578125 0l-2.515625 6.9375l-3.21875 0zm6.609375 -9.40625l7.765625 0l-2.390625 -6.34375q-1.09375 -2.890625 -1.625 -4.75q-0.4375 2.203125 -1.234375 4.375l-2.515625 6.71875z" fill-rule="nonzero"/><path fill="#eeeeee" d="m554.01074 36.202717l0 0c0 -10.727003 8.695984 -19.42296 19.422974 -19.42296l272.0202 0c5.151306 0 10.091614 2.0463428 13.734131 5.688854c3.642517 3.6425114 5.688843 8.582817 5.688843 13.734106l0 77.689514c0 10.727005 -8.695923 19.422958 -19.422974 19.422958l-272.0202 0l0 0c-10.72699 0 -19.422974 -8.695953 -19.422974 -19.422958z" fill-rule="evenodd"/><path stroke="#595959" stroke-width="1.0" stroke-linejoin="round" stroke-linecap="butt" d="m554.01074 36.202717l0 0c0 -10.727003 8.695984 -19.42296 19.422974 -19.42296l272.0202 0c5.151306 0 10.091614 2.0463428 13.734131 5.688854c3.642517 3.6425114 5.688843 8.582817 5.688843 13.734106l0 77.689514c0 10.727005 -8.695923 19.422958 -19.422974 19.422958l-272.0202 0l0 0c-10.72699 0 -19.422974 -8.695953 -19.422974 -19.422958z" fill-rule="evenodd"/><path fill="#000000" d="m701.1157 86.76748l0 -22.906254l8.59375 0q2.625 0 4.203125 0.7031288q1.59375 0.6875 2.484375 2.140625q0.90625 1.4375 0.90625 3.015625q0 1.46875 -0.796875 2.765625q-0.796875 1.296875 -2.40625 2.09375q2.078125 0.609375 3.1875 2.078125q1.125 1.46875 1.125 3.46875q0 1.609375 -0.6875 3.0q-0.671875 1.375 -1.671875 2.125q-1.0 0.75 -2.515625 1.140625q-1.5 0.375 -3.6875 0.375l-8.734375 0zm3.03125 -13.28125l4.953125 0q2.015625 0 2.890625 -0.265625q1.15625 -0.34375 1.734375 -1.140625q0.59375 -0.796875 0.59375 -2.0q0 -1.140625 -0.546875 -2.0q-0.546875 -0.875 -1.5625 -1.1875q-1.015625 -0.328125 -3.484375 -0.328125l-4.578125 0l0 6.921875zm0 10.578125l5.703125 0q1.46875 0 2.0625 -0.109375q1.046875 -0.1875 1.75 -0.625q0.703125 -0.4375 1.15625 -1.265625q0.453125 -0.84375 0.453125 -1.9375q0 -1.28125 -0.65625 -2.21875q-0.65625 -0.953125 -1.828125 -1.328125q-1.15625 -0.390625 -3.34375 -0.390625l-5.296875 0l0 7.875z" fill-rule="nonzero"/><path fill="#eeeeee" d="m350.6348 231.15361l0 0c0 -10.727005 8.695953 -19.422958 19.422974 -19.422958l272.02023 0c5.151245 0 10.091553 2.046341 13.73407 5.688858c3.642517 3.6425018 5.688843 8.582809 5.688843 13.7341l0 77.68953c0 10.72699 -8.695923 19.422943 -19.422913 19.422943l-272.02023 0l0 0c-10.72702 0 -19.422974 -8.695953 -19.422974 -19.422943z" fill-rule="evenodd"/><path stroke="#595959" stroke-width="1.0" stroke-linejoin="round" stroke-linecap="butt" d="m350.6348 231.15361l0 0c0 -10.727005 8.695953 -19.422958 19.422974 -19.422958l272.02023 0c5.151245 0 10.091553 2.046341 13.73407 5.688858c3.642517 3.6425018 5.688843 8.582809 5.688843 13.7341l0 77.68953c0 10.72699 -8.695923 19.422943 -19.422913 19.422943l-272.02023 0l0 0c-10.72702 0 -19.422974 -8.695953 -19.422974 -19.422943z" fill-rule="evenodd"/><path fill="#000000" d="m513.3257 273.68713l3.03125 0.765625q-0.953125 3.734375 -3.4375 5.703125q-2.46875 1.953125 -6.046875 1.953125q-3.703125 0 -6.03125 -1.5q-2.3125 -1.515625 -3.53125 -4.375q-1.203125 -2.859375 -1.203125 -6.140625q0 -3.578125 1.359375 -6.234375q1.375 -2.671875 3.890625 -4.046875q2.53125 -1.390625 5.5625 -1.390625q3.4375 0 5.78125 1.75q2.34375 1.75 3.265625 4.921875l-2.984375 0.703125q-0.796875 -2.5 -2.3125 -3.640625q-1.515625 -1.140625 -3.8125 -1.140625q-2.640625 0 -4.421875 1.265625q-1.765625 1.265625 -2.484375 3.40625q-0.71875 2.125 -0.71875 4.390625q0 2.921875 0.84375 5.109375q0.859375 2.171875 2.65625 3.25q1.796875 1.078125 3.890625 1.078125q2.546875 0 4.3125 -1.46875q1.765625 -1.46875 2.390625 -4.359375z" fill-rule="nonzero"/><path fill="#000000" fill-opacity="0.0" d="m709.44385 133.31519l-203.37009 78.4252" fill-rule="evenodd"/><path stroke="#595959" stroke-width="3.0" stroke-linejoin="round" stroke-linecap="butt" d="m709.4438 133.31519l-186.57556 71.94876" fill-rule="evenodd"/><path fill="#595959" stroke="#595959" stroke-width="3.0" stroke-linecap="butt" d="m521.0854 200.64061l-10.919647 9.52179l14.485382 -0.27511597z" fill-rule="evenodd"/><path fill="#eeeeee" d="m147.2654 426.1101l0 0c0 -10.72702 8.695953 -19.422974 19.422958 -19.422974l272.02023 0c5.1512756 0 10.091583 2.0463562 13.7341 5.6888733c3.642517 3.6424866 5.688843 8.582794 5.688843 13.7341l0 77.689514c0 10.72699 -8.695953 19.422974 -19.422943 19.422974l-272.02023 0l0 0c-10.727005 0 -19.422958 -8.695984 -19.422958 -19.422974z" fill-rule="evenodd"/><path stroke="#595959" stroke-width="1.0" stroke-linejoin="round" stroke-linecap="butt" d="m147.2654 426.1101l0 0c0 -10.72702 8.695953 -19.422974 19.422958 -19.422974l272.02023 0c5.1512756 0 10.091583 2.0463562 13.7341 5.6888733c3.642517 3.6424866 5.688843 8.582794 5.688843 13.7341l0 77.689514c0 10.72699 -8.695953 19.422974 -19.422943 19.422974l-272.02023 0l0 0c-10.727005 0 -19.422958 -8.695984 -19.422958 -19.422974z" fill-rule="evenodd"/><path fill="#000000" d="m293.61252 476.67487l0 -22.90625l7.890625 0q2.671875 0 4.078125 0.328125q1.96875 0.453125 3.359375 1.640625q1.8125 1.53125 2.703125 3.921875q0.90625 2.375 0.90625 5.4375q0 2.609375 -0.609375 4.625q-0.609375 2.015625 -1.5625 3.34375q-0.953125 1.3125 -2.09375 2.078125q-1.125 0.75 -2.734375 1.140625q-1.59375 0.390625 -3.671875 0.390625l-8.265625 0zm3.03125 -2.703125l4.890625 0q2.265625 0 3.546875 -0.421875q1.296875 -0.421875 2.0625 -1.1875q1.078125 -1.078125 1.671875 -2.890625q0.609375 -1.828125 0.609375 -4.421875q0 -3.59375 -1.1875 -5.515625q-1.171875 -1.9375 -2.859375 -2.59375q-1.21875 -0.46875 -3.921875 -0.46875l-4.8125 0l0 17.5z" fill-rule="nonzero"/><path fill="#eeeeee" d="m554.01245 426.11295l0 0c0 -10.72702 8.695923 -19.422974 19.422913 -19.422974l272.02026 0c5.151245 0 10.091553 2.0463562 13.73407 5.688843c3.642517 3.642517 5.688904 8.582825 5.688904 13.734131l0 77.68948c0 10.72699 -8.695984 19.422974 -19.422974 19.422974l-272.02026 0l0 0c-10.72699 0 -19.422913 -8.695984 -19.422913 -19.422974z" fill-rule="evenodd"/><path stroke="#595959" stroke-width="1.0" stroke-linejoin="round" stroke-linecap="butt" d="m554.01245 426.11295l0 0c0 -10.72702 8.695923 -19.422974 19.422913 -19.422974l272.02026 0c5.151245 0 10.091553 2.0463562 13.73407 5.688843c3.642517 3.642517 5.688904 8.582825 5.688904 13.734131l0 77.68948c0 10.72699 -8.695984 19.422974 -19.422974 19.422974l-272.02026 0l0 0c-10.72699 0 -19.422913 -8.695984 -19.422913 -19.422974z" fill-rule="evenodd"/><path fill="#000000" d="m701.3049 476.6777l0 -22.90625l16.5625 0l0 2.703125l-13.53125 0l0 7.015625l12.671875 0l0 2.6875l-12.671875 0l0 7.796875l14.0625 0l0 2.703125l-17.09375 0z" fill-rule="nonzero"/><path fill="#000000" fill-opacity="0.0" d="m506.06787 328.26608l-203.37009 78.4252" fill-rule="evenodd"/><path stroke="#595959" stroke-width="3.0" stroke-linejoin="round" stroke-linecap="butt" d="m506.06787 328.26608l-186.57556 71.94876" fill-rule="evenodd"/><path fill="#595959" stroke="#595959" stroke-width="3.0" stroke-linecap="butt" d="m317.7094 395.5915l-10.919617 9.52179l14.485413 -0.27511597z" fill-rule="evenodd"/><path fill="#000000" fill-opacity="0.0" d="m506.06787 328.26608l203.37006 78.4252" fill-rule="evenodd"/><path stroke="#595959" stroke-width="3.0" stroke-linejoin="round" stroke-linecap="butt" d="m506.06787 328.26608l186.57556 71.94876" fill-rule="evenodd"/><path fill="#595959" stroke="#595959" stroke-width="3.0" stroke-linecap="butt" d="m690.8606 404.8382l14.485413 0.27508545l-10.919617 -9.52179z" fill-rule="evenodd"/></g></svg>